<svg width="19" height="19" viewBox="0 0 19 19" fill="none" xmlns="http://www.w3.org/2000/svg">
<path d="M6.84 4.94C6.84 5.16547 6.77314 5.38588 6.64788 5.57335C6.52261 5.76082 6.34457 5.90694 6.13626 5.99322C5.92795 6.07951 5.69873 6.10208 5.4776 6.0581C5.25646 6.01411 5.05333 5.90553 4.8939 5.7461C4.73447 5.58667 4.62589 5.38354 4.5819 5.1624C4.53792 4.94127 4.56049 4.71205 4.64678 4.50374C4.73306 4.29543 4.87918 4.11739 5.06665 3.99212C5.25412 3.86686 5.47453 3.8 5.7 3.8C6.00235 3.8 6.29231 3.92011 6.5061 4.1339C6.71989 4.34769 6.84 4.63765 6.84 4.94ZM19 1.52V17.48C19 17.8831 18.8399 18.2697 18.5548 18.5548C18.2697 18.8399 17.8831 19 17.48 19H1.52C1.11687 19 0.730253 18.8399 0.445198 18.5548C0.160142 18.2697 0 17.8831 0 17.48V1.52C0 1.11687 0.160142 0.730253 0.445198 0.445198C0.730253 0.160142 1.11687 0 1.52 0H17.48C17.8831 0 18.2697 0.160142 18.5548 0.445198C18.8399 0.730253 19 1.11687 19 1.52ZM17.48 17.48V1.52H1.52V17.48H17.48ZM5.7 7.22C5.49844 7.22 5.30513 7.30007 5.1626 7.4426C5.02007 7.58513 4.94 7.77844 4.94 7.98V14.06C4.94 14.2616 5.02007 14.4549 5.1626 14.5974C5.30513 14.7399 5.49844 14.82 5.7 14.82C5.90156 14.82 6.09487 14.7399 6.2374 14.5974C6.37993 14.4549 6.46 14.2616 6.46 14.06V7.98C6.46 7.77844 6.37993 7.58513 6.2374 7.4426C6.09487 7.30007 5.90156 7.22 5.7 7.22ZM11.4 7.22C10.7158 7.21996 10.0474 7.42514 9.481 7.809C9.43944 7.62664 9.3321 7.466 9.17951 7.35784C9.02692 7.24967 8.83981 7.20158 8.65397 7.22275C8.46814 7.24392 8.29663 7.33287 8.17229 7.47259C8.04794 7.6123 7.97947 7.79296 7.98 7.98V14.06C7.98 14.2616 8.06007 14.4549 8.2026 14.5974C8.34513 14.7399 8.53843 14.82 8.74 14.82C8.94156 14.82 9.13487 14.7399 9.2774 14.5974C9.41993 14.4549 9.5 14.2616 9.5 14.06V10.64C9.5 10.1361 9.70018 9.65282 10.0565 9.2965C10.4128 8.94018 10.8961 8.74 11.4 8.74C11.9039 8.74 12.3872 8.94018 12.7435 9.2965C13.0998 9.65282 13.3 10.1361 13.3 10.64V14.06C13.3 14.2616 13.3801 14.4549 13.5226 14.5974C13.6651 14.7399 13.8584 14.82 14.06 14.82C14.2616 14.82 14.4549 14.7399 14.5974 14.5974C14.7399 14.4549 14.82 14.2616 14.82 14.06V10.64C14.82 9.73296 14.4597 8.86307 13.8183 8.22169C13.1769 7.58032 12.307 7.22 11.4 7.22Z" fill="black"/>
</svg>
