<svg width="20" height="18" viewBox="0 0 20 18" fill="none" xmlns="http://www.w3.org/2000/svg">
<path d="M19.9474 2.71176C19.8914 2.57528 19.7972 2.45884 19.6767 2.3771C19.5561 2.29536 19.4147 2.25199 19.2701 2.25246H16.4876C16.1537 1.65585 15.6902 1.14596 15.1329 0.762277C14.5757 0.378592 13.9397 0.13141 13.2742 0.0398738C12.6087 -0.0516628 11.9315 0.0149024 11.2952 0.234415C10.6588 0.453927 10.0804 0.820496 9.60458 1.30573C9.188 1.7217 8.8568 2.21874 8.63046 2.76765C8.40412 3.31656 8.28719 3.90626 8.28655 4.50211V5.07389C4.56129 4.0803 1.51335 1.00578 1.48589 0.968283C1.39014 0.871819 1.27034 0.804182 1.13958 0.77277C1.00882 0.741359 0.872137 0.747384 0.744495 0.790186C0.617259 0.831654 0.50332 0.907542 0.414711 1.00983C0.326103 1.11213 0.266114 1.23703 0.241081 1.37135C-0.555228 5.88939 0.771954 8.91704 2.02591 10.6605C2.65486 11.5421 3.41821 12.3144 4.2867 12.9477C2.88629 14.5693 0.726189 15.4129 0.707883 15.4223C0.604587 15.4615 0.511267 15.5241 0.434875 15.6054C0.358484 15.6867 0.300991 15.7846 0.26668 15.8918C0.232369 15.999 0.222125 16.1128 0.23671 16.2246C0.251295 16.3365 0.290333 16.4435 0.350917 16.5377C0.424141 16.6502 0.69873 17.0158 1.3669 17.3626C2.19982 17.7844 3.29818 18 4.62536 18C11.0782 18 16.4785 12.9102 17.0276 6.35807L19.7918 3.53663C19.8912 3.42821 19.9585 3.2932 19.986 3.14723C20.0136 3.00125 20.0002 2.85027 19.9474 2.71176ZM15.8011 5.4957C15.6736 5.62526 15.5984 5.79931 15.5906 5.98313C15.2154 11.8791 10.4009 16.5002 4.62536 16.5002C3.65514 16.5002 2.97782 16.369 2.50187 16.2097C3.55446 15.6285 5.01894 14.6162 5.97084 13.1633C6.0261 13.0753 6.06279 12.9765 6.07855 12.8732C6.09431 12.7699 6.0888 12.6644 6.06237 12.5633C6.03573 12.4613 5.98859 12.3661 5.92398 12.2838C5.85936 12.2015 5.77868 12.1339 5.6871 12.0853C5.67795 12.0759 4.32331 11.3542 3.16088 9.71379C1.84285 7.85783 1.28452 5.59881 1.50419 2.99297C2.95036 4.21153 5.71456 6.19872 8.8998 6.74238C9.00498 6.75968 9.11257 6.75357 9.21523 6.72445C9.3179 6.69534 9.41323 6.6439 9.49474 6.57366C9.57442 6.50226 9.63846 6.41439 9.68263 6.31585C9.7268 6.2173 9.75011 6.1103 9.75102 6.00187V4.50211C9.75239 3.81409 9.98467 3.14746 10.4089 2.61399C10.8332 2.08051 11.4236 1.71262 12.0813 1.57199C12.7389 1.43136 13.4238 1.52653 14.0211 1.84156C14.6183 2.15659 15.0917 2.67232 15.3618 3.30229C15.4202 3.4363 15.5152 3.5501 15.6354 3.62995C15.7556 3.7098 15.8958 3.75227 16.0391 3.75222H17.5036L15.8011 5.4957Z" fill="black"/>
</svg>
