<svg width="20" height="20" viewBox="0 0 20 20" fill="none" xmlns="http://www.w3.org/2000/svg">
<path d="M20 10C20 8.02219 19.4135 6.08879 18.3147 4.4443C17.2159 2.79981 15.6541 1.51809 13.8268 0.761209C11.9996 0.00433284 9.98891 -0.1937 8.0491 0.192152C6.10929 0.578004 4.32746 1.53041 2.92894 2.92894C1.53041 4.32746 0.578004 6.10929 0.192152 8.0491C-0.1937 9.98891 0.00433284 11.9996 0.761209 13.8268C1.51809 15.6541 2.79981 17.2159 4.4443 18.3147C6.08879 19.4135 8.02219 20 10 20C12.6514 19.9975 15.1934 18.9431 17.0683 17.0683C18.9431 15.1934 19.9975 12.6514 20 10ZM10.7692 18.4231V12.3077H13.0769C13.2809 12.3077 13.4766 12.2267 13.6209 12.0824C13.7651 11.9381 13.8462 11.7425 13.8462 11.5385C13.8462 11.3345 13.7651 11.1388 13.6209 10.9945C13.4766 10.8503 13.2809 10.7692 13.0769 10.7692H10.7692V8.46154C10.7692 8.05352 10.9313 7.6622 11.2198 7.37368C11.5084 7.08517 11.8997 6.92308 12.3077 6.92308H13.8462C14.0502 6.92308 14.2458 6.84204 14.3901 6.69778C14.5343 6.55352 14.6154 6.35786 14.6154 6.15385C14.6154 5.94984 14.5343 5.75418 14.3901 5.60992C14.2458 5.46566 14.0502 5.38462 13.8462 5.38462H12.3077C11.4924 5.38715 10.7113 5.71214 10.1348 6.28863C9.5583 6.86512 9.23331 7.64627 9.23077 8.46154V10.7692H6.92308C6.71907 10.7692 6.52341 10.8503 6.37915 10.9945C6.23489 11.1388 6.15385 11.3345 6.15385 11.5385C6.15385 11.7425 6.23489 11.9381 6.37915 12.0824C6.52341 12.2267 6.71907 12.3077 6.92308 12.3077H9.23077V18.4231C7.06231 18.2251 5.05362 17.1988 3.62254 15.5577C2.19146 13.9165 1.44815 11.7868 1.54723 9.61156C1.64631 7.43634 2.58015 5.38304 4.1545 3.87876C5.72885 2.37448 7.82252 1.53504 10 1.53504C12.1775 1.53504 14.2712 2.37448 15.8455 3.87876C17.4199 5.38304 18.3537 7.43634 18.4528 9.61156C18.5519 11.7868 17.8085 13.9165 16.3775 15.5577C14.9464 17.1988 12.9377 18.2251 10.7692 18.4231Z" fill="#C9C9C9"/>
</svg>
