<svg width="19" height="19" viewBox="0 0 19 19" fill="none" xmlns="http://www.w3.org/2000/svg">
<path d="M9.5 4.94C8.59812 4.94 7.71649 5.20744 6.9666 5.7085C6.21671 6.20956 5.63225 6.92173 5.28711 7.75496C4.94197 8.58819 4.85167 9.50506 5.02762 10.3896C5.20357 11.2742 5.63787 12.0867 6.27559 12.7244C6.91332 13.3621 7.72583 13.7964 8.61039 13.9724C9.49494 14.1483 10.4118 14.058 11.245 13.7129C12.0783 13.3678 12.7904 12.7833 13.2915 12.0334C13.7926 11.2835 14.06 10.4019 14.06 9.5C14.06 8.29061 13.5796 7.13076 12.7244 6.27559C11.8692 5.42043 10.7094 4.94 9.5 4.94ZM9.5 12.54C8.89874 12.54 8.31099 12.3617 7.81107 12.0277C7.31114 11.6936 6.9215 11.2188 6.69141 10.6634C6.46132 10.1079 6.40111 9.49663 6.51841 8.90693C6.63571 8.31722 6.92524 7.77555 7.3504 7.3504C7.77555 6.92524 8.31722 6.63571 8.90693 6.51841C9.49663 6.40111 10.1079 6.46132 10.6634 6.69141C11.2188 6.9215 11.6936 7.31114 12.0277 7.81107C12.3617 8.31099 12.54 8.89874 12.54 9.5C12.5375 10.3055 12.2164 11.0773 11.6468 11.6468C11.0773 12.2164 10.3055 12.5375 9.5 12.54ZM13.68 0H5.32C3.90905 0 2.55589 0.560498 1.55819 1.55819C0.560498 2.55589 0 3.90905 0 5.32V13.68C0 15.091 0.560498 16.4441 1.55819 17.4418C2.55589 18.4395 3.90905 19 5.32 19H13.68C15.091 19 16.4441 18.4395 17.4418 17.4418C18.4395 16.4441 19 15.091 19 13.68V5.32C19 3.90905 18.4395 2.55589 17.4418 1.55819C16.4441 0.560498 15.091 0 13.68 0ZM17.48 13.68C17.48 14.179 17.3817 14.6732 17.1907 15.1342C16.9998 15.5952 16.7199 16.0141 16.367 16.367C16.0141 16.7199 15.5952 16.9998 15.1342 17.1907C14.6732 17.3817 14.179 17.48 13.68 17.48H5.32C4.82098 17.48 4.32684 17.3817 3.8658 17.1907C3.40477 16.9998 2.98586 16.7199 2.63299 16.367C2.28013 16.0141 2.00023 15.5952 1.80926 15.1342C1.61829 14.6732 1.52 14.179 1.52 13.68V5.32C1.52 4.31218 1.92036 3.34563 2.63299 2.63299C3.34563 1.92036 4.31218 1.52 5.32 1.52H13.68C14.179 1.52 14.6732 1.61829 15.1342 1.80926C15.5952 2.00023 16.0141 2.28013 16.367 2.63299C16.7199 2.98586 16.9998 3.40477 17.1907 3.8658C17.3817 4.32684 17.48 4.82098 17.48 5.32V13.68ZM15.58 4.56C15.58 4.78547 15.5131 5.00588 15.3879 5.19335C15.2626 5.38082 15.0846 5.52694 14.8763 5.61322C14.668 5.69951 14.4387 5.72208 14.2176 5.6781C13.9965 5.63411 13.7933 5.52553 13.6339 5.3661C13.4745 5.20667 13.3659 5.00354 13.3219 4.7824C13.2779 4.56126 13.3005 4.33205 13.3868 4.12374C13.4731 3.91543 13.6192 3.73739 13.8067 3.61212C13.9941 3.48686 14.2145 3.42 14.44 3.42C14.7423 3.42 15.0323 3.54011 15.2461 3.7539C15.4599 3.96769 15.58 4.25765 15.58 4.56Z" fill="#C9C9C9"/>
</svg>
