<svg width="50" height="50" viewBox="0 0 50 50" fill="none" xmlns="http://www.w3.org/2000/svg">
<path d="M28.5463 50V26.5363H38.8033C41.1262 26.5363 43.1228 26.8603 44.7932 27.5084C46.4635 28.1341 47.7424 29.0503 48.6298 30.257C49.5433 31.4413 50 32.8827 50 34.581C50 36.2346 49.5433 37.6648 48.6298 38.8715C47.7424 40.0559 46.4635 40.9721 44.7932 41.6201C43.1228 42.2682 41.1262 42.5922 38.8033 42.5922H30.1514L31.4433 41.419V50H28.5463ZM31.4433 41.6201L30.1514 40.4134H38.725C41.4655 40.4134 43.5404 39.9106 44.9498 38.905C46.3852 37.8771 47.103 36.4358 47.103 34.581C47.103 32.7039 46.3852 31.2514 44.9498 30.2235C43.5404 29.1955 41.4655 28.6816 38.725 28.6816H30.1514L31.4433 27.5084V41.6201Z" fill="black"/>
<path d="M9.78729 33.2402V9.77654H12.1754L24.7031 28.0782H23.4503L35.8606 9.77654H38.2487V33.2402H35.4691V13.4972H36.1347L24.7031 30.257H23.3329L11.823 13.4972H12.5669V33.2402H9.78729Z" fill="black"/>
<path d="M0 23.4637V0H10.2571C12.5799 0 14.5765 0.324023 16.2469 0.972068C17.9173 1.59777 19.1961 2.51397 20.0835 3.72067C20.997 4.90503 21.4537 6.34637 21.4537 8.04469C21.4537 9.69833 20.997 11.1285 20.0835 12.3352C19.1961 13.5196 17.9173 14.4358 16.2469 15.0838C14.5765 15.7318 12.5799 16.0559 10.2571 16.0559H1.60512L2.89704 14.8827V23.4637H0ZM2.89704 15.0838L1.60512 13.8771H10.1788C12.9192 13.8771 14.9941 13.3743 16.4035 12.3687C17.839 11.3408 18.5567 9.89944 18.5567 8.04469C18.5567 6.1676 17.839 4.71508 16.4035 3.68715C14.9941 2.65922 12.9192 2.14525 10.1788 2.14525H1.60512L2.89704 0.972068V15.0838Z" fill="black"/>
</svg>
